<svg xmlns="http://www.w3.org/2000/svg" width="390" height="844" viewBox="0 0 390 844">
<style>text{font-family:'Avenir Next','Segoe UI',Helvetica,Arial,sans-serif}</style>
<rect x="0" y="0" width="390" height="844" rx="0" fill="#0C0D0B"/>
<text x="20" y="28" fill="#9A968C" font-size="13" font-weight="600" text-anchor="start">9:41</text>
<text x="370" y="28" fill="#9A968C" font-size="12" font-weight="500" text-anchor="end">LTE</text>
<rect x="0" y="40" width="390" height="56" rx="0" fill="#181A17"/>
<line x1="0" y1="96" x2="390" y2="96" stroke="#34362F" stroke-width="1"/>
<text x="16" y="62" fill="#C4A46A" font-size="13" font-weight="650" text-anchor="start">N0CALL</text>
<text x="16" y="82" fill="#9A968C" font-size="12" font-weight="500" text-anchor="start">KV4P HT  ·  FM</text>
<text x="195.0" y="74" fill="#F3F0E8" font-size="18" font-weight="650" text-anchor="middle">146.5200</text>
<rect x="298" y="52" width="76" height="32" rx="6" fill="#2A2418" stroke="#C4A46A" stroke-width="1.5"/>
<text x="336" y="73" fill="#C4A46A" font-size="12" font-weight="700" text-anchor="middle">UNKEY</text>
<rect x="0" y="772" width="390" height="72" rx="0" fill="#181A17"/>
<line x1="0" y1="772" x2="390" y2="772" stroke="#34362F" stroke-width="1"/>
<circle cx="48.75" cy="794" r="3" fill="#9A968C"/>
<text x="48.75" y="818" fill="#9A968C" font-size="13" font-weight="500" text-anchor="middle">Home</text>
<circle cx="146.25" cy="794" r="3" fill="#9A968C"/>
<text x="146.25" y="818" fill="#9A968C" font-size="13" font-weight="500" text-anchor="middle">Radio</text>
<circle cx="243.75" cy="794" r="3" fill="#9A968C"/>
<text x="243.75" y="818" fill="#9A968C" font-size="13" font-weight="500" text-anchor="middle">Log</text>
<circle cx="341.25" cy="794" r="3" fill="#C4A46A"/>
<text x="341.25" y="818" fill="#C4A46A" font-size="13" font-weight="650" text-anchor="middle">Modules</text>
<rect x="16" y="124" width="92" height="26" rx="13" fill="#243024"/>
<text x="62.0" y="141" fill="#8FAF7A" font-size="11" font-weight="700" text-anchor="middle">OBSERVING</text>
<text x="140" y="141" fill="#9A968C" font-size="12" font-weight="500" text-anchor="start">Does not own transmit</text>
<text x="16" y="166" fill="#F3F0E8" font-size="22" font-weight="650" text-anchor="start">VoiceLog</text>
<text x="16" y="190" fill="#9A968C" font-size="13" font-weight="500" text-anchor="start">2 m  ·  FM  ·  SIMPLEX  ·  16:07 UTC</text>
<rect x="16" y="214" width="358" height="78" rx="12" fill="#181A17"/>
<text x="32" y="240" fill="#C4A46A" font-size="12" font-weight="650" text-anchor="start">Hearing</text>
<text x="32" y="266" fill="#F3F0E8" font-size="14" font-weight="500" text-anchor="start">K7T, you are five nine, name is Alex.</text>
<text x="16" y="308" fill="#C4A46A" font-size="12" font-weight="650" text-anchor="start">Draft</text>
<rect x="16" y="320" width="174" height="64" rx="12" fill="#181A17"/>
<text x="30" y="340" fill="#9A968C" font-size="11" font-weight="500" text-anchor="start">Callsign</text>
<text x="30" y="362" fill="#F3F0E8" font-size="16" font-weight="650" text-anchor="start">K7T</text>
<text x="176" y="362" fill="#8A7044" font-size="10" font-weight="500" text-anchor="end">Confirm</text>
<rect x="200" y="320" width="174" height="64" rx="12" fill="#181A17"/>
<text x="214" y="340" fill="#9A968C" font-size="11" font-weight="500" text-anchor="start">Report</text>
<text x="214" y="362" fill="#F3F0E8" font-size="16" font-weight="650" text-anchor="start">59</text>
<text x="360" y="362" fill="#8A7044" font-size="10" font-weight="500" text-anchor="end">Heard</text>
<rect x="16" y="392" width="174" height="64" rx="12" fill="#181A17"/>
<text x="30" y="412" fill="#9A968C" font-size="11" font-weight="500" text-anchor="start">Name</text>
<text x="30" y="434" fill="#F3F0E8" font-size="16" font-weight="650" text-anchor="start">Alex</text>
<text x="176" y="434" fill="#8A7044" font-size="10" font-weight="500" text-anchor="end">Heard</text>
<rect x="200" y="392" width="174" height="64" rx="12" fill="#181A17"/>
<text x="214" y="412" fill="#9A968C" font-size="11" font-weight="500" text-anchor="start">Frequency</text>
<text x="214" y="434" fill="#F3F0E8" font-size="16" font-weight="650" text-anchor="start">146.5200</text>
<text x="360" y="434" fill="#8A7044" font-size="10" font-weight="500" text-anchor="end">Radio</text>
<rect x="16" y="464" width="174" height="64" rx="12" fill="#181A17"/>
<text x="30" y="484" fill="#9A968C" font-size="11" font-weight="500" text-anchor="start">Mode</text>
<text x="30" y="506" fill="#F3F0E8" font-size="16" font-weight="650" text-anchor="start">FM</text>
<text x="176" y="506" fill="#8A7044" font-size="10" font-weight="500" text-anchor="end">Radio</text>
<rect x="200" y="464" width="174" height="64" rx="12" fill="#181A17"/>
<text x="214" y="484" fill="#9A968C" font-size="11" font-weight="500" text-anchor="start">Grid</text>
<text x="214" y="506" fill="#F3F0E8" font-size="16" font-weight="650" text-anchor="start">CN87</text>
<text x="360" y="506" fill="#8A7044" font-size="10" font-weight="500" text-anchor="end">Station</text>
<text x="16" y="660" fill="#9A968C" font-size="12" font-weight="500" text-anchor="start">Uncertain fields stay marked until you correct them.</text>
<rect x="16" y="684" width="170" height="56" rx="10" fill="#22241F" stroke="#34362F" stroke-width="1"/>
<text x="101" y="718" fill="#F3F0E8" font-size="16" font-weight="650" text-anchor="middle">Correct</text>
<rect x="204" y="684" width="170" height="56" rx="10" fill="#2A2418" stroke="#C4A46A" stroke-width="1.5"/>
<text x="289" y="718" fill="#C4A46A" font-size="16" font-weight="650" text-anchor="middle">Finalize</text>
</svg>
